<svg width="32" height="32" viewBox="0 0 32 32" fill="none" xmlns="http://www.w3.org/2000/svg">
<path d="M18.65 29.0342C22.5679 29.0342 26.3024 27.3348 28.8963 24.3717C29.156 24.0749 29.2291 23.6567 29.0856 23.2885C28.9421 22.9204 28.6061 22.6637 28.2148 22.6233C20.9663 21.8777 15.5 15.7814 15.5 8.44224C15.5 6.72061 15.8042 5.03312 16.4041 3.4273C16.5423 3.05735 16.4636 2.64093 16.2 2.34772C15.9368 2.05485 15.5325 1.93447 15.1524 2.03479C9.17515 3.62442 5 9.08183 5 15.3062C5 22.876 11.1233 29.0342 18.65 29.0342ZM13.8169 4.75328C13.5397 5.95818 13.4 7.19229 13.4 8.44224C13.4 16.1349 18.6314 22.6384 25.8757 24.3639C23.8394 26.007 21.2939 26.9222 18.65 26.9222C12.2814 26.9222 7.1 21.7112 7.1 15.3062C7.1 10.7172 9.78135 6.62135 13.8169 4.75328Z" fill="#171716"/>
</svg>
